<svg width="22" height="22" viewBox="0 0 22 22" fill="none" xmlns="http://www.w3.org/2000/svg">
<path d="M19.0781 17.0156H4.29688V3.60938C4.29688 3.51484 4.21953 3.4375 4.125 3.4375H2.92188C2.82734 3.4375 2.75 3.51484 2.75 3.60938V18.3906C2.75 18.4852 2.82734 18.5625 2.92188 18.5625H19.0781C19.1727 18.5625 19.25 18.4852 19.25 18.3906V17.1875C19.25 17.093 19.1727 17.0156 19.0781 17.0156ZM6.1875 15.2969H7.39062C7.48516 15.2969 7.5625 15.2195 7.5625 15.125V12.0312C7.5625 11.9367 7.48516 11.8594 7.39062 11.8594H6.1875C6.09297 11.8594 6.01562 11.9367 6.01562 12.0312V15.125C6.01562 15.2195 6.09297 15.2969 6.1875 15.2969ZM9.45312 15.2969H10.6562C10.7508 15.2969 10.8281 15.2195 10.8281 15.125V8.25C10.8281 8.15547 10.7508 8.07812 10.6562 8.07812H9.45312C9.35859 8.07812 9.28125 8.15547 9.28125 8.25V15.125C9.28125 15.2195 9.35859 15.2969 9.45312 15.2969ZM12.7188 15.2969H13.9219C14.0164 15.2969 14.0938 15.2195 14.0938 15.125V9.92578C14.0938 9.83125 14.0164 9.75391 13.9219 9.75391H12.7188C12.6242 9.75391 12.5469 9.83125 12.5469 9.92578V15.125C12.5469 15.2195 12.6242 15.2969 12.7188 15.2969ZM15.9844 15.2969H17.1875C17.282 15.2969 17.3594 15.2195 17.3594 15.125V6.53125C17.3594 6.43672 17.282 6.35938 17.1875 6.35938H15.9844C15.8898 6.35938 15.8125 6.43672 15.8125 6.53125V15.125C15.8125 15.2195 15.8898 15.2969 15.9844 15.2969Z" fill="#E63946"/>
</svg>
