<svg width="24" height="24" viewBox="0 0 24 24" fill="none" xmlns="http://www.w3.org/2000/svg">
<path d="M9.37498 20.4002C9.40686 20.4286 9.44716 20.4458 9.48972 20.4492C9.53229 20.4526 9.57481 20.442 9.6108 20.419C9.64679 20.3961 9.6743 20.362 9.68913 20.3219C9.70397 20.2819 9.70532 20.2381 9.69298 20.1972L7.17298 11.5592C7.15025 11.4805 7.10393 11.4107 7.04026 11.3592C6.9766 11.3077 6.89866 11.277 6.81698 11.2712C6.40898 11.2412 6.00164 11.2079 5.59497 11.1712L2.22498 10.8642C2.18935 10.8607 2.15345 10.867 2.12109 10.8823C2.08874 10.8976 2.06114 10.9214 2.04124 10.9512C2.02134 10.9809 2.00987 11.0155 2.00807 11.0513C2.00626 11.087 2.01417 11.1226 2.03098 11.1542C3.85398 14.5642 6.47898 17.8142 9.37498 20.4002ZM11.847 22.2262C11.867 22.2962 11.927 22.3482 12 22.3482C12.0354 22.3477 12.0696 22.3354 12.0973 22.3133C12.125 22.2912 12.1446 22.2606 12.153 22.2262L15.237 11.6532C15.2461 11.6225 15.2478 11.59 15.2418 11.5586C15.2358 11.5271 15.2224 11.4975 15.2026 11.4723C15.1828 11.4471 15.1572 11.4271 15.1281 11.4138C15.0989 11.4006 15.067 11.3945 15.035 11.3962C13.0126 11.4827 10.9874 11.4827 8.96498 11.3962C8.93309 11.3946 8.90129 11.4006 8.87222 11.4138C8.84315 11.427 8.81767 11.447 8.79789 11.4721C8.77812 11.4971 8.76463 11.5265 8.75856 11.5579C8.75248 11.5892 8.754 11.6216 8.76297 11.6522L11.847 22.2262ZM14.307 20.1972C14.251 20.3872 14.477 20.5322 14.625 20.4002C17.521 17.8132 20.146 14.5642 21.969 11.1542C21.9857 11.1227 21.9936 11.0872 21.9918 11.0515C21.9901 11.0159 21.9787 10.9814 21.9589 10.9517C21.9391 10.9219 21.9117 10.8981 21.8795 10.8827C21.8473 10.8673 21.8115 10.8609 21.776 10.8642L18.406 11.1712C17.998 11.2079 17.5903 11.2412 17.183 11.2712C17.1013 11.277 17.0234 11.3077 16.9597 11.3592C16.896 11.4107 16.8497 11.4805 16.827 11.5592L14.307 20.1972ZM21.801 9.3562C21.8358 9.35313 21.8693 9.34098 21.898 9.32093C21.9267 9.30089 21.9496 9.27367 21.9645 9.24198C21.9794 9.2103 21.9857 9.17526 21.9828 9.14038C21.9799 9.1055 21.9679 9.07199 21.948 9.0432L18.71 4.3482C18.572 4.14825 18.3875 3.98481 18.1724 3.87193C17.9572 3.75906 17.7179 3.70012 17.475 3.7002H14.985C14.9521 3.7002 14.9198 3.70828 14.8908 3.72374C14.8618 3.7392 14.8371 3.76156 14.8188 3.78884C14.8006 3.81612 14.7893 3.84748 14.786 3.88016C14.7827 3.91283 14.7875 3.94582 14.8 3.9762L17.057 9.4992C17.089 9.57732 17.145 9.64329 17.2169 9.68766C17.2887 9.73203 17.3728 9.75252 17.457 9.7462C17.7276 9.72553 17.9986 9.7022 18.27 9.6762L21.801 9.3562ZM13.165 3.9462C13.1345 3.87321 13.0831 3.81088 13.0173 3.7671C12.9514 3.72331 12.8741 3.70003 12.795 3.7002H11.205C11.1259 3.70003 11.0485 3.72331 10.9827 3.7671C10.9168 3.81088 10.8654 3.87321 10.835 3.9462L8.47698 9.6042C8.46477 9.6338 8.45985 9.66591 8.46263 9.69782C8.46541 9.72972 8.47581 9.76049 8.49296 9.78754C8.51011 9.81459 8.53351 9.83712 8.56118 9.85324C8.58885 9.86937 8.61999 9.87861 8.65198 9.8802C10.882 9.9882 13.118 9.9882 15.349 9.8802C15.3809 9.87846 15.4119 9.8691 15.4394 9.85292C15.467 9.83673 15.4902 9.81418 15.5073 9.78715C15.5243 9.76013 15.5346 9.72941 15.5374 9.69758C15.5401 9.66575 15.5352 9.63373 15.523 9.6042L13.165 3.9462ZM9.19998 3.9762C9.21245 3.94582 9.21726 3.91283 9.21397 3.88016C9.21068 3.84748 9.19939 3.81612 9.18111 3.78884C9.16282 3.76156 9.1381 3.7392 9.10913 3.72374C9.08015 3.70828 9.04782 3.7002 9.01498 3.7002H6.52498C6.28203 3.70012 6.04271 3.75906 5.82758 3.87193C5.61246 3.98481 5.42797 4.14825 5.28998 4.3482L2.05198 9.0432C2.03206 9.07199 2.02006 9.1055 2.01715 9.14038C2.01425 9.17526 2.02056 9.2103 2.03544 9.24198C2.05032 9.27367 2.07325 9.30089 2.10195 9.32093C2.13065 9.34098 2.1641 9.35313 2.19898 9.3562L5.72998 9.6762C6.00064 9.7022 6.27164 9.72553 6.54298 9.7462C6.62719 9.75252 6.71124 9.73203 6.78309 9.68766C6.85494 9.64329 6.91091 9.57732 6.94298 9.4992L9.19998 3.9762Z" fill="#3B1E1E"/>
</svg>
