<svg width="38" height="38" viewBox="0 0 38 38" fill="none" xmlns="http://www.w3.org/2000/svg">
<path d="M8.90625 3.5625C7.489 3.5625 6.1298 4.1255 5.12765 5.12765C4.1255 6.1298 3.5625 7.489 3.5625 8.90625V29.0938C3.5625 30.511 4.1255 31.8702 5.12765 32.8724C6.1298 33.8745 7.489 34.4375 8.90625 34.4375H29.0938C30.511 34.4375 31.8702 33.8745 32.8724 32.8724C33.8745 31.8702 34.4375 30.511 34.4375 29.0938V8.90625C34.4375 7.489 33.8745 6.1298 32.8724 5.12765C31.8702 4.1255 30.511 3.5625 29.0938 3.5625H8.90625ZM5.9375 8.90625C5.9375 8.11889 6.25028 7.36378 6.80703 6.80703C7.36378 6.25028 8.11889 5.9375 8.90625 5.9375H29.0938C29.8811 5.9375 30.6362 6.25028 31.193 6.80703C31.7497 7.36378 32.0625 8.11889 32.0625 8.90625V29.0938C32.0625 29.8811 31.7497 30.6362 31.193 31.193C30.6362 31.7497 29.8811 32.0625 29.0938 32.0625H8.90625C8.11889 32.0625 7.36378 31.7497 6.80703 31.193C6.25028 30.6362 5.9375 29.8811 5.9375 29.0938V8.90625ZM27.3125 11.875C27.3125 11.5601 27.1874 11.258 26.9647 11.0353C26.742 10.8126 26.4399 10.6875 26.125 10.6875C25.8101 10.6875 25.508 10.8126 25.2853 11.0353C25.0626 11.258 24.9375 11.5601 24.9375 11.875V26.125C24.9375 26.4399 25.0626 26.742 25.2853 26.9647C25.508 27.1874 25.8101 27.3125 26.125 27.3125C26.4399 27.3125 26.742 27.1874 26.9647 26.9647C27.1874 26.742 27.3125 26.4399 27.3125 26.125V11.875ZM19 19C19.3149 19 19.617 19.1251 19.8397 19.3478C20.0624 19.5705 20.1875 19.8726 20.1875 20.1875V26.125C20.1875 26.4399 20.0624 26.742 19.8397 26.9647C19.617 27.1874 19.3149 27.3125 19 27.3125C18.6851 27.3125 18.383 27.1874 18.1603 26.9647C17.9376 26.742 17.8125 26.4399 17.8125 26.125V20.1875C17.8125 19.8726 17.9376 19.5705 18.1603 19.3478C18.383 19.1251 18.6851 19 19 19ZM13.0625 15.4375C13.0625 15.1226 12.9374 14.8205 12.7147 14.5978C12.492 14.3751 12.1899 14.25 11.875 14.25C11.5601 14.25 11.258 14.3751 11.0353 14.5978C10.8126 14.8205 10.6875 15.1226 10.6875 15.4375V26.125C10.6875 26.4399 10.8126 26.742 11.0353 26.9647C11.258 27.1874 11.5601 27.3125 11.875 27.3125C12.1899 27.3125 12.492 27.1874 12.7147 26.9647C12.9374 26.742 13.0625 26.4399 13.0625 26.125V15.4375Z" fill="#E63946"/>
</svg>
