<svg width="24" height="24" viewBox="0 0 24 24" fill="none" xmlns="http://www.w3.org/2000/svg">
<path d="M5.625 1.5C4.589 1.5 3.75 2.34 3.75 3.375V20.625C3.75 21.66 4.59 22.5 5.625 22.5H18.375C19.41 22.5 20.25 21.66 20.25 20.625V12.75C20.25 11.7554 19.8549 10.8016 19.1517 10.0983C18.4484 9.39509 17.4946 9 16.5 9H14.625C14.1277 9 13.6508 8.80246 13.2992 8.45083C12.9475 8.09919 12.75 7.62228 12.75 7.125V5.25C12.75 4.25544 12.3549 3.30161 11.6517 2.59835C10.9484 1.89509 9.99456 1.5 9 1.5H5.625Z" fill="#3B1E1E"/>
<path d="M12.9688 1.81641C13.7953 2.76937 14.2495 3.98895 14.2478 5.25041V7.12541C14.2478 7.33241 14.4158 7.50041 14.6228 7.50041H16.4978C17.7592 7.49865 18.9788 7.95289 19.9318 8.77941C19.4916 7.10621 18.615 5.5799 17.3916 4.35652C16.1683 3.13313 14.6419 2.25656 12.9688 1.81641Z" fill="#3B1E1E"/>
</svg>
