<svg width="24" height="24" viewBox="0 0 24 24" fill="none" xmlns="http://www.w3.org/2000/svg">
<path d="M6.859 2.44546C8.122 3.36646 9.078 4.66046 9.892 5.84946L10.53 6.78746C10.7281 7.07702 10.8188 7.42674 10.7863 7.77609C10.7538 8.12543 10.6001 8.45242 10.352 8.70046L8.996 10.0565L9.139 10.3605C9.489 11.0695 10.093 12.0905 11.002 13.0005C11.6307 13.6175 12.3381 14.1488 13.106 14.5805L13.473 14.7775L13.8 14.9395L13.946 15.0065L15.301 13.6505C15.5498 13.4014 15.8783 13.2478 16.2289 13.2166C16.5796 13.1853 16.9301 13.2784 17.219 13.4795L18.233 14.1825C19.385 14.9925 20.588 15.9155 21.523 17.1135C21.6846 17.3214 21.7874 17.5689 21.8207 17.8301C21.8539 18.0913 21.8164 18.3567 21.712 18.5985C20.875 20.5515 18.757 22.2145 16.554 22.1325L16.254 22.1165L16.021 22.0965L15.763 22.0665L15.482 22.0285L15.177 21.9775L14.851 21.9135L14.505 21.8365L14.139 21.7425L13.754 21.6325L13.352 21.5025C11.506 20.8765 9.163 19.6465 6.759 17.2425C4.355 14.8385 3.126 12.4965 2.5 10.6505L2.37 10.2485L2.26 9.86346L2.166 9.49746L2.088 9.15146C2.0655 9.04309 2.04449 8.93441 2.025 8.82546L1.975 8.52046L1.935 8.23946L1.906 7.98146L1.886 7.74846L1.87 7.44846C1.789 5.25246 3.47 3.11946 5.414 2.28646C5.64798 2.18543 5.9042 2.14696 6.15753 2.17484C6.41086 2.20271 6.65259 2.29597 6.859 2.44546ZM5.932 4.25346C4.86 4.81346 3.822 6.09346 3.869 7.37446L3.889 7.70246L3.911 7.90746L3.94 8.13746L3.98 8.39046L4.031 8.66746L4.096 8.96546L4.176 9.28546L4.272 9.62446L4.386 9.98246C4.428 10.1045 4.47267 10.2295 4.52 10.3575L4.674 10.7495L4.85 11.1565C5.478 12.5385 6.502 14.1565 8.175 15.8285C9.847 17.5005 11.465 18.5255 12.847 19.1535L13.254 19.3295L13.646 19.4835C13.774 19.5315 13.899 19.5761 14.021 19.6175L14.379 19.7315L14.719 19.8275L15.038 19.9075L15.336 19.9725L15.613 20.0235L15.867 20.0635L16.097 20.0935L16.301 20.1135L16.629 20.1335C17.893 20.1805 19.183 19.1485 19.741 18.0905C19.029 17.2555 18.145 16.5705 17.17 15.8805L16.422 15.3595L16.232 15.5585L15.826 16.0015L15.611 16.2275C15.025 16.8245 14.341 17.3315 13.521 17.0005L13.295 16.9055L13.019 16.7815L12.865 16.7085L12.527 16.5395L12.156 16.3395C11.218 15.8156 10.3546 15.1681 9.589 14.4145C8.83531 13.6488 8.18786 12.7854 7.664 11.8475L7.464 11.4775L7.294 11.1385L7.098 10.7085L7.002 10.4805C6.691 9.71146 7.119 9.06246 7.666 8.50046L7.89 8.28046L8.447 7.76746L8.647 7.57746L8.174 6.88446C7.471 5.86446 6.784 4.94446 5.931 4.25246L5.932 4.25346ZM14.995 6.04046L15.111 6.05346C15.8389 6.18186 16.5075 6.5374 17.0209 7.06914C17.5343 7.60087 17.8662 8.2815 17.969 9.01346C18.0057 9.26664 17.9439 9.52424 17.7964 9.73326C17.6489 9.94229 17.4269 10.0868 17.1761 10.1372C16.9253 10.1875 16.6647 10.1398 16.448 10.0039C16.2313 9.86798 16.0749 9.65417 16.011 9.40646L15.988 9.29146C15.9478 9.00456 15.8253 8.73545 15.6354 8.51664C15.4456 8.29784 15.1964 8.1387 14.918 8.05846L14.763 8.02346C14.5119 7.97895 14.2873 7.8402 14.1351 7.63556C13.9829 7.43093 13.9147 7.17589 13.9443 6.9226C13.9739 6.66932 14.0992 6.43692 14.2945 6.27294C14.4898 6.10897 14.7404 6.0258 14.995 6.04046ZM15.002 3.00046C16.5933 3.00046 18.1194 3.6326 19.2446 4.75782C20.3699 5.88304 21.002 7.40916 21.002 9.00046C21.0017 9.25534 20.9041 9.50049 20.7292 9.68583C20.5542 9.87116 20.315 9.98269 20.0606 9.99763C19.8062 10.0126 19.5556 9.92979 19.3602 9.7662C19.1647 9.60261 19.0391 9.37056 19.009 9.11746L19.002 9.00046C19.0019 7.98502 18.6156 7.00762 17.9214 6.26649C17.2273 5.52536 16.2773 5.07597 15.264 5.00946L15.002 5.00046C14.7368 5.00046 14.4824 4.8951 14.2949 4.70757C14.1074 4.52003 14.002 4.26568 14.002 4.00046C14.002 3.73524 14.1074 3.48089 14.2949 3.29335C14.4824 3.10582 14.7368 3.00046 15.002 3.00046Z" fill="#3B1E1E"/>
</svg>
