<svg width="24" height="24" viewBox="0 0 24 24" fill="none" xmlns="http://www.w3.org/2000/svg">
<path d="M6.39755 4.75953C7.88787 3.29902 9.89436 2.48566 11.981 2.49619C14.0676 2.50673 16.0658 3.34032 17.5413 4.81581C19.0168 6.2913 19.8503 8.28946 19.8609 10.3761C19.8714 12.4627 19.0581 14.4692 17.5976 15.9595L13.4116 20.1455C13.0365 20.5205 12.5279 20.7311 11.9976 20.7311C11.4672 20.7311 10.9586 20.5205 10.5836 20.1455L6.39755 15.9595C4.91244 14.4743 4.07812 12.4599 4.07812 10.3595C4.07812 8.25915 4.91244 6.24479 6.39755 4.75953Z" stroke="#3B1E1E" stroke-width="1.5" stroke-linejoin="round"/>
<path d="M12 13.3594C13.6569 13.3594 15 12.0162 15 10.3594C15 8.70252 13.6569 7.35938 12 7.35938C10.3431 7.35938 9 8.70252 9 10.3594C9 12.0162 10.3431 13.3594 12 13.3594Z" stroke="#3B1E1E" stroke-width="1.5" stroke-linecap="round" stroke-linejoin="round"/>
</svg>
