<svg width="52" height="52" viewBox="0 0 52 52" fill="none" xmlns="http://www.w3.org/2000/svg">
<path d="M28.7061 19.5003C28.7061 18.0053 29.9194 16.792 31.4144 16.792H38.9978C40.4928 16.792 41.7061 18.0053 41.7061 19.5003V27.0837C41.7061 27.802 41.4207 28.4908 40.9128 28.9987C40.4049 29.5067 39.716 29.792 38.9978 29.792C38.2795 29.792 37.5906 29.5067 37.0827 28.9987C36.5748 28.4908 36.2894 27.802 36.2894 27.0837V26.0393L27.9131 34.4157C27.6616 34.6672 27.363 34.8668 27.0344 35.0029C26.7057 35.1391 26.3535 35.2092 25.9978 35.2092C25.642 35.2092 25.2898 35.1391 24.9612 35.0029C24.6325 34.8668 24.3339 34.6672 24.0824 34.4157L19.4978 29.831L14.9131 34.4157C14.4051 34.9236 13.7161 35.209 12.9978 35.209C12.2794 35.209 11.5904 34.9236 11.0824 34.4157C10.5744 33.9077 10.2891 33.2187 10.2891 32.5003C10.2891 32.1446 10.3591 31.7924 10.4952 31.4638C10.6314 31.1351 10.8309 30.8365 11.0824 30.585L17.5824 24.085C17.8339 23.8334 18.1325 23.6339 18.4612 23.4977C18.7898 23.3616 19.142 23.2915 19.4978 23.2915C19.8535 23.2915 20.2057 23.3616 20.5344 23.4977C20.863 23.6339 21.1616 23.8334 21.4131 24.085L25.9978 28.6697L32.4588 22.2087H31.4144C29.9194 22.2087 28.7061 20.9953 28.7061 19.5003Z" fill="#3B1E1E"/>
</svg>
