<svg id="Layer_1" data-name="Layer 1" xmlns="http://www.w3.org/2000/svg" viewBox="0 0 288 288"><defs><style>.cls-1,.cls-4,.cls-5{fill:#b60303;}.cls-1{stroke:#b60303;stroke-miterlimit:10;stroke-width:0.75px;}.cls-2{font-size:22.53px;font-family:Gilroy-SemiBold;font-weight:600;}.cls-3{letter-spacing:-0.02em;}.cls-4,.cls-5{font-family:Gilroy-ExtraBold;font-weight:800;}.cls-4{letter-spacing:-0.01em;}</style></defs><path class="cls-1" d="M122.78,100s-3-12.56,15.18-17.18,24.17,18.92,14.78,32.23-28.45,14.15-31.25,37.14c0,0-6.17-17.1,12.61-30.69s10.65-32.94-1.68-29L129.71,94A20.71,20.71,0,0,0,122.78,100Z"/><path class="cls-1" d="M142.79,166.57s-2.24-11.91,2.94-19.06,15-11.24,18.43-15.66,3.89-14.61,1.58-19.55c0,0-1.73,8-13.16,12.12-15.27,5.47-22,16.54-23.31,22.67C128.38,151.23,126.57,162,142.79,166.57Z"/><path class="cls-1" d="M153.44,166.57s-10.65-12.19,4.77-22.84,19.2-12.19,18.92-18.36c0,0,7.14,6.87,6.58,19.48s-7.47,21-16.91,23.82S153.44,166.57,153.44,166.57Z"/><path class="cls-1" d="M132.42,92.44c-5.22,2.75-8.12,5.09-9.64,7.51-2.1,3.37-1.53,6.88-.8,11.9,1.26,8.62-4.62,15.13-4.62,15.13,14.5-10.44,15.83-19.34,14.08-25.15S132.42,92.44,132.42,92.44Zm-5.75,8.67a1,1,0,1,1,1-1A1,1,0,0,1,126.67,101.11Z"/><text class="cls-2" transform="translate(90.89 195.75)"><tspan class="cls-3">S</tspan><tspan x="12.64" y="0">WIFT</tspan><tspan class="cls-4" x="64.74" y="0">PO</tspan><tspan class="cls-5" x="95.56" y="0">s</tspan></text></svg>